<?xml version="1.0" encoding="iso-8859-1"?>
<!-- Generator: Adobe Illustrator 28.0.0, SVG Export Plug-In . SVG Version: 6.00 Build 0)  -->
<svg version="1.1" xmlns="http://www.w3.org/2000/svg" xmlns:xlink="http://www.w3.org/1999/xlink" x="0px" y="0px"
	 viewBox="0 0 1220.554 347.853" style="enable-background:new 0 0 1220.554 347.853;" xml:space="preserve">
<g id="White_Background_6">
</g>
<g id="White_Background_5">
</g>
<g id="White_Background_4">
</g>
<g id="White_Background_3">
</g>
<g id="White_Background_2">
</g>
<g id="White_Background_1">
</g>

<g id="Layer_1">
	<g>
		<path style="fill:#FFFFFF;" d="M494.77-326.186c0,4.617,0.073,9.122,0.223,13.511c0.101,3.025,0.317,6.031,0.632,9.02
			c-4.725-3.111-9.845-5.455-15.371-7.01c-7.147-2.009-14.443-3.015-21.886-3.015c-9.233,0-16.937,1.752-23.113,5.248
			c-6.18,3.5-10.796,9.38-13.846,17.642c-3.053,8.263-4.578,19.618-4.578,34.057c0,18.909,2.976,33.313,8.933,43.213
			c5.953,9.903,15.929,14.85,29.925,14.85c9.676,0,18.2-2.048,25.57-6.141c6.543-3.634,12.171-7.948,16.896-12.933l2.422,16.395
			h21.216v-156.324H494.77V-326.186z M476.681-222.677c-3.127,0.97-6.699,1.451-10.719,1.451c-5.063,0-9.156-1.005-12.283-3.015
			c-3.126-2.011-5.436-5.583-6.922-10.719c-1.49-5.136-2.234-12.468-2.234-21.997c0-9.973,0.782-17.565,2.346-22.779
			c1.563-5.209,3.942-8.744,7.146-10.607c3.2-1.86,7.482-2.792,12.841-2.792c5.656,0,10.793,0.597,15.409,1.786
			c3.763,0.974,7.947,2.102,12.506,3.37v55.201c-3.136,2.206-5.969,4.089-8.486,5.634
			C483.007-225.133,479.807-223.643,476.681-222.677z"/>
		<path style="fill:#FFFFFF;" d="M572.706-358.567h-12.06c-5.359,0-8.039,2.68-8.039,8.04v12.506c0,5.359,2.68,8.04,8.039,8.04
			h12.06c5.359,0,8.04-2.681,8.04-8.04v-12.506C580.745-355.887,578.065-358.567,572.706-358.567z"/>
		<rect x="553.276" y="-310.999" style="fill:#FFFFFF;" width="26.799" height="109.649"/>
		<path style="fill:#FFFFFF;" d="M703.234-254.389c4.837-5.136,7.181-12.69,7.035-22.666c-0.15-12.06-4.096-21.177-11.836-27.357
			c-7.744-6.176-20.472-9.268-38.189-9.268c-12.656,0-22.967,1.787-30.929,5.36c-7.967,3.573-13.773,9.568-17.419,17.977
			c-3.65,8.413-5.472,19.841-5.472,34.28c0,13.399,1.822,24.341,5.472,32.828c3.646,8.486,9.526,14.704,17.642,18.647
			c8.113,3.942,18.87,5.917,32.269,5.917c4.913,0,10.161-0.262,15.745-0.781c5.583-0.524,10.977-1.305,16.191-2.346
			c5.209-1.04,9.826-2.379,13.846-4.019l-2.681-17.196c-6.699,0.747-13.661,1.339-20.88,1.786c-7.223,0.447-13.588,0.67-19.094,0.67
			c-7.446,0-13.399-1.005-17.866-3.015c-4.466-2.011-7.669-5.769-9.602-11.277c-1.115-3.171-1.898-7.134-2.371-11.837h44.131
			C690.394-246.684,698.395-249.252,703.234-254.389z M634.656-263.433c0.24-7.042,0.985-12.643,2.253-16.749
			c1.563-5.06,4.277-8.559,8.151-10.496c3.87-1.933,9.302-2.903,16.303-2.903c8.039,0,13.734,1.193,17.084,3.573
			c3.35,2.383,5.097,6.626,5.248,12.729c0,3.873-0.709,7.147-2.121,9.826c-1.417,2.68-4.656,4.02-9.715,4.02H634.656z"/>
		<linearGradient id="SVGID_1_" gradientUnits="userSpaceOnUse" x1="785.9237" y1="-27.0087" x2="784.3353" y2="-358.9936">
			<stop  offset="0" style="stop-color:#1700E9"/>
			<stop  offset="1" style="stop-color:#992AFF"/>
		</linearGradient>
		<path style="fill:url(#SVGID_1_);" d="M781.057-313.68c-12.359,0-22.184,1.155-29.477,3.462
			c-7.296,2.31-12.545,6.029-15.745,11.167c-3.203,5.136-4.801,11.873-4.801,20.209c0,8.19,1.598,14.816,4.801,19.875
			c2.424,3.835,6.005,6.898,10.736,9.194c-2.224,1.313-4.09,3.087-5.599,5.323c-2.01,2.98-3.276,6.218-3.797,9.714
			c-0.524,3.5-0.189,7,1.005,10.496c1.148,3.378,3.174,6.265,6.059,8.671c-3.072,1.435-5.693,2.937-7.846,4.505
			c-3.573,2.606-6.14,5.548-7.704,8.821s-2.346,7.293-2.346,12.059c0,6.104,0.893,11.201,2.681,15.297
			c1.786,4.093,4.801,7.443,9.044,10.05c4.243,2.603,9.938,4.466,17.084,5.582c7.147,1.117,16.153,1.675,27.022,1.675
			c13.695,0,24.6-1.005,32.716-3.015c8.113-2.011,13.957-5.549,17.53-10.608c3.574-5.063,5.36-12.135,5.36-21.215
			c0-9.676-2.234-17.084-6.699-22.221c-4.467-5.136-12.209-8.374-23.225-9.714l-40.644-5.359c-4.321-0.594-7.111-2.121-8.375-4.578
			c-1.266-2.457-1.49-5.06-0.67-7.817c0.397-1.337,0.964-2.558,1.696-3.667c5.893,1.024,12.868,1.545,20.971,1.545
			c12.356,0,22.182-1.189,29.479-3.573c7.292-2.38,12.506-6.141,15.633-11.277c3.126-5.136,4.689-11.725,4.689-19.764
			c0-7.215-1.176-13.228-3.518-18.046l14.685-1.606l1.563-12.506h-35.665C800.804-312.784,791.926-313.68,781.057-313.68z
			 M804.73-204.03c2.68,0.893,4.539,2.121,5.583,3.685c1.04,1.563,1.563,3.981,1.563,7.258c0,4.02-0.859,7.108-2.569,9.268
			c-1.713,2.156-4.728,3.646-9.044,4.466c-4.321,0.817-10.423,1.228-18.312,1.228c-7.744,0-13.773-0.412-18.089-1.228
			c-4.321-0.82-7.335-2.344-9.045-4.578c-1.713-2.234-2.567-5.437-2.567-9.603c0-3.126,0.482-5.694,1.451-7.704
			c0.966-2.011,2.53-4.02,4.69-6.03c0.97-0.905,2.089-1.869,3.317-2.879l31.856,3.885C798.326-205.666,802.05-204.923,804.73-204.03
			z M800.152-265.777c-3.5,2.606-9.938,3.908-19.317,3.908c-9.379,0-15.855-1.301-19.428-3.908c-3.574-2.603-5.36-6.958-5.36-13.065
			c0-6.399,1.786-10.866,5.36-13.399c3.573-2.53,10.049-3.796,19.428-3.796c9.379,0,15.818,1.266,19.317,3.796
			c3.496,2.533,5.248,7,5.248,13.399C805.4-272.735,803.648-268.38,800.152-265.777z"/>
		
			<linearGradient id="SVGID_00000067231262484772312120000008468610589493261741_" gradientUnits="userSpaceOnUse" x1="911.7906" y1="-27.6109" x2="910.2021" y2="-359.5958">
			<stop  offset="0" style="stop-color:#1700E9"/>
			<stop  offset="1" style="stop-color:#992AFF"/>
		</linearGradient>
		<path style="fill:url(#SVGID_00000067231262484772312120000008468610589493261741_);" d="M942.631-308.097
			c-7.965-3.719-18.647-5.583-32.046-5.583c-13.103,0-23.637,1.864-31.599,5.583c-7.967,3.724-13.735,9.826-17.308,18.312
			c-3.573,8.486-5.359,19.729-5.359,33.722c0,13.996,1.786,25.2,5.359,33.609c3.573,8.413,9.341,14.516,17.308,18.312
			c7.962,3.797,18.496,5.695,31.599,5.695c13.399,0,24.081-1.898,32.046-5.695c7.963-3.796,13.696-9.899,17.196-18.312
			c3.496-8.409,5.248-19.614,5.248-33.609c0-13.993-1.752-25.236-5.248-33.722C956.328-298.271,950.595-304.373,942.631-308.097z
			 M934.593-233.508c-1.563,5.36-4.282,9.083-8.152,11.167c-3.872,2.086-9.156,3.126-15.856,3.126c-6.553,0-11.724-1.04-15.52-3.126
			c-3.797-2.084-6.514-5.806-8.151-11.167c-1.64-5.359-2.457-12.875-2.457-22.555c0-9.676,0.817-17.196,2.457-22.555
			c1.637-5.36,4.354-9.118,8.151-11.277c3.797-2.157,8.967-3.239,15.52-3.239c6.7,0,11.983,1.082,15.856,3.239
			c3.87,2.159,6.589,5.917,8.152,11.277c1.563,5.359,2.344,12.879,2.344,22.555C936.937-246.384,936.156-238.867,934.593-233.508z"
			/>
		
			<linearGradient id="SVGID_00000030469718342365140850000004268318784398460546_" gradientUnits="userSpaceOnUse" x1="1039.8778" y1="-28.2238" x2="1038.2893" y2="-360.2087">
			<stop  offset="0" style="stop-color:#1700E9"/>
			<stop  offset="1" style="stop-color:#992AFF"/>
		</linearGradient>
		<path style="fill:url(#SVGID_00000030469718342365140850000004268318784398460546_);" d="M1064.002-326.186
			c0,4.617,0.073,9.122,0.223,13.511c0.101,3.025,0.317,6.031,0.632,9.02c-4.724-3.111-9.845-5.455-15.371-7.01
			c-7.147-2.009-14.443-3.015-21.886-3.015c-9.233,0-16.937,1.752-23.113,5.248c-6.18,3.5-10.796,9.38-13.846,17.642
			c-3.053,8.263-4.578,19.618-4.578,34.057c0,18.909,2.976,33.313,8.933,43.213c5.953,9.903,15.929,14.85,29.925,14.85
			c9.676,0,18.2-2.048,25.57-6.141c6.544-3.634,12.171-7.948,16.896-12.933l2.422,16.395h21.216v-156.324h-27.022V-326.186z
			 M1045.913-222.677c-3.127,0.97-6.699,1.451-10.719,1.451c-5.063,0-9.156-1.005-12.283-3.015
			c-3.126-2.011-5.436-5.583-6.923-10.719c-1.49-5.136-2.234-12.468-2.234-21.997c0-9.973,0.782-17.565,2.346-22.779
			c1.563-5.209,3.942-8.744,7.146-10.607c3.2-1.86,7.482-2.792,12.841-2.792c5.657,0,10.793,0.597,15.41,1.786
			c3.762,0.974,7.947,2.102,12.506,3.37v55.201c-3.136,2.206-5.969,4.089-8.486,5.634
			C1052.24-225.133,1049.04-223.643,1045.913-222.677z"/>
		
			<linearGradient id="SVGID_00000052103870526330574180000014103249996671931812_" gradientUnits="userSpaceOnUse" x1="1169.7637" y1="-28.8452" x2="1168.1752" y2="-360.8301">
			<stop  offset="0" style="stop-color:#1700E9"/>
			<stop  offset="1" style="stop-color:#992AFF"/>
		</linearGradient>
		<path style="fill:url(#SVGID_00000052103870526330574180000014103249996671931812_);" d="M1194.308-221.226
			c-7.223,0.447-13.588,0.67-19.094,0.67c-7.446,0-13.399-1.005-17.866-3.015c-4.466-2.011-7.669-5.769-9.602-11.277
			c-1.115-3.171-1.898-7.134-2.37-11.837h44.131c11.167,0,19.167-2.568,24.007-7.705c4.837-5.136,7.181-12.69,7.035-22.666
			c-0.15-12.06-4.097-21.177-11.836-27.357c-7.744-6.176-20.472-9.268-38.188-9.268c-12.656,0-22.967,1.787-30.929,5.36
			c-7.967,3.573-13.773,9.568-17.419,17.977c-3.65,8.413-5.472,19.841-5.472,34.28c0,13.399,1.822,24.341,5.472,32.828
			c3.646,8.486,9.526,14.704,17.642,18.647c8.113,3.942,18.87,5.917,32.269,5.917c4.913,0,10.161-0.262,15.745-0.781
			c5.583-0.524,10.977-1.305,16.191-2.346c5.209-1.04,9.826-2.379,13.846-4.019l-2.681-17.196
			C1208.488-222.265,1201.527-221.673,1194.308-221.226z M1155.338-290.678c3.87-1.933,9.302-2.903,16.303-2.903
			c8.039,0,13.734,1.193,17.084,3.573c3.35,2.383,5.097,6.626,5.248,12.729c0,3.873-0.709,7.147-2.121,9.826
			c-1.417,2.68-4.656,4.02-9.715,4.02h-37.201c0.24-7.042,0.985-12.643,2.252-16.749
			C1148.751-285.241,1151.465-288.741,1155.338-290.678z"/>
		
			<linearGradient id="SVGID_00000111884490910823899920000017079910902496273824_" gradientUnits="userSpaceOnUse" x1="173.9267" y1="-14.018" x2="173.9267" y2="-477.5724">
			<stop  offset="0" style="stop-color:#1700E9"/>
			<stop  offset="1" style="stop-color:#992AFF"/>
		</linearGradient>
		<path style="fill:url(#SVGID_00000111884490910823899920000017079910902496273824_);" d="M173.927-432
			C77.869-432,0-354.13,0-258.073C0-162.016,77.869-84.147,173.927-84.147s173.927-77.869,173.927-173.927
			C347.853-354.13,269.984-432,173.927-432z M76.138-182.271c7.377-25.984,30.115-103.764,30.115-103.764
			c3.446-8.003,9.974-13.101,18.891-14.747c9.343-1.726,19.707,0.525,29.188,6.207L83.626-140.139
			C72.381-152.584,70.969-164.065,76.138-182.271z M242.531-226.868c-15.643,8.658-29.644,16.449-39.863,22.136l-1.784,0.992
			c-5.744,3.195-10.372,5.77-12.067,6.701c-7.301,2.963-14.813,2.139-21.751-2.391c-7.215-4.712-12.833-12.65-15.912-22.291
			l94.126-42.504c5.11,3.806,8.235,9.545,8.715,16.204C254.628-239.238,250.235-231.132,242.531-226.868z M117.979-323.46
			c2.933-10.657,8.874-19.442,16.823-24.646c7.586-4.967,15.828-5.789,23.847-2.381l98.756,48.705l0.56,0.26
			c15.056,6.571,23.22,18.875,23.682,35.642L117.979-323.46z"/>
	</g>
	<g>
		<path style="fill:#FFFFFF;" d="M494.77,105.814c0,4.617,0.073,9.122,0.223,13.511c0.101,3.025,0.317,6.031,0.632,9.02
			c-4.725-3.111-9.845-5.455-15.371-7.01c-7.147-2.009-14.443-3.015-21.886-3.015c-9.233,0-16.937,1.752-23.113,5.248
			c-6.18,3.5-10.796,9.38-13.846,17.642c-3.053,8.263-4.578,19.618-4.578,34.057c0,18.909,2.976,33.313,8.933,43.213
			c5.953,9.903,15.929,14.85,29.925,14.85c9.676,0,18.2-2.048,25.57-6.141c6.543-3.634,12.171-7.948,16.896-12.933l2.422,16.395
			h21.216V74.326H494.77V105.814z M476.681,209.323c-3.127,0.97-6.699,1.451-10.719,1.451c-5.063,0-9.156-1.005-12.283-3.015
			c-3.126-2.011-5.436-5.583-6.922-10.719c-1.49-5.136-2.234-12.468-2.234-21.997c0-9.973,0.782-17.565,2.346-22.779
			c1.563-5.209,3.942-8.744,7.146-10.607c3.2-1.86,7.482-2.792,12.841-2.792c5.656,0,10.793,0.597,15.409,1.786
			c3.763,0.974,7.947,2.102,12.506,3.37v55.201c-3.136,2.206-5.969,4.089-8.486,5.634
			C483.007,206.867,479.807,208.357,476.681,209.323z"/>
		<path style="fill:#FFFFFF;" d="M572.706,73.433h-12.06c-5.359,0-8.039,2.68-8.039,8.04v12.506c0,5.359,2.68,8.04,8.039,8.04h12.06
			c5.359,0,8.04-2.681,8.04-8.04V81.473C580.745,76.113,578.065,73.433,572.706,73.433z"/>
		<rect x="553.276" y="121.001" style="fill:#FFFFFF;" width="26.799" height="109.649"/>
		<path style="fill:#FFFFFF;" d="M703.234,177.611c4.837-5.136,7.181-12.69,7.035-22.666c-0.15-12.06-4.096-21.177-11.836-27.357
			c-7.744-6.176-20.472-9.268-38.189-9.268c-12.656,0-22.967,1.787-30.929,5.36c-7.967,3.573-13.773,9.568-17.419,17.977
			c-3.65,8.413-5.472,19.841-5.472,34.28c0,13.399,1.822,24.341,5.472,32.828c3.646,8.486,9.526,14.704,17.642,18.647
			c8.113,3.942,18.87,5.917,32.269,5.917c4.913,0,10.161-0.262,15.745-0.781c5.583-0.524,10.977-1.305,16.191-2.346
			c5.209-1.04,9.826-2.379,13.846-4.019l-2.681-17.196c-6.699,0.747-13.661,1.339-20.88,1.786c-7.223,0.447-13.588,0.67-19.094,0.67
			c-7.446,0-13.399-1.005-17.866-3.015c-4.466-2.011-7.669-5.769-9.602-11.277c-1.115-3.171-1.898-7.134-2.371-11.837h44.131
			C690.394,185.316,698.395,182.748,703.234,177.611z M634.656,168.567c0.24-7.042,0.985-12.643,2.253-16.749
			c1.563-5.06,4.277-8.559,8.151-10.496c3.87-1.933,9.302-2.903,16.303-2.903c8.039,0,13.734,1.193,17.084,3.573
			c3.35,2.383,5.097,6.626,5.248,12.729c0,3.873-0.709,7.147-2.121,9.826c-1.417,2.68-4.656,4.02-9.715,4.02H634.656z"/>
		<path style="fill:#FFFFFF;" d="M781.057,118.32c-12.359,0-22.184,1.155-29.477,3.462c-7.296,2.31-12.545,6.029-15.745,11.167
			c-3.203,5.136-4.801,11.873-4.801,20.209c0,8.19,1.598,14.816,4.801,19.875c2.424,3.835,6.005,6.898,10.736,9.194
			c-2.224,1.313-4.09,3.087-5.599,5.323c-2.01,2.98-3.276,6.218-3.797,9.714c-0.524,3.5-0.189,7,1.005,10.496
			c1.148,3.378,3.174,6.265,6.059,8.671c-3.072,1.435-5.693,2.937-7.846,4.505c-3.573,2.606-6.14,5.548-7.704,8.821
			s-2.346,7.293-2.346,12.059c0,6.104,0.893,11.201,2.681,15.297c1.786,4.093,4.801,7.443,9.044,10.05
			c4.243,2.603,9.938,4.466,17.084,5.582c7.147,1.117,16.153,1.675,27.022,1.675c13.695,0,24.6-1.005,32.716-3.015
			c8.113-2.01,13.957-5.549,17.53-10.608c3.574-5.063,5.36-12.135,5.36-21.215c0-9.676-2.234-17.084-6.699-22.221
			c-4.467-5.136-12.209-8.374-23.225-9.714l-40.644-5.359c-4.321-0.594-7.111-2.121-8.375-4.578c-1.266-2.457-1.49-5.06-0.67-7.817
			c0.397-1.337,0.964-2.558,1.696-3.667c5.893,1.024,12.868,1.545,20.971,1.545c12.356,0,22.182-1.189,29.479-3.573
			c7.292-2.38,12.506-6.141,15.633-11.277c3.126-5.136,4.689-11.725,4.689-19.764c0-7.215-1.176-13.228-3.518-18.046l14.685-1.606
			l1.563-12.506h-35.665C800.804,119.216,791.926,118.32,781.057,118.32z M804.73,227.97c2.68,0.893,4.539,2.121,5.583,3.685
			c1.04,1.563,1.563,3.981,1.563,7.258c0,4.02-0.859,7.108-2.569,9.268c-1.713,2.156-4.728,3.646-9.044,4.466
			c-4.321,0.817-10.423,1.228-18.312,1.228c-7.744,0-13.773-0.412-18.089-1.228c-4.321-0.82-7.335-2.344-9.045-4.578
			c-1.713-2.234-2.567-5.437-2.567-9.603c0-3.126,0.482-5.694,1.451-7.704c0.966-2.011,2.53-4.02,4.69-6.03
			c0.97-0.905,2.089-1.869,3.317-2.879l31.856,3.885C798.326,226.334,802.05,227.077,804.73,227.97z M800.152,166.223
			c-3.5,2.606-9.938,3.908-19.317,3.908c-9.379,0-15.855-1.301-19.428-3.908c-3.574-2.603-5.36-6.958-5.36-13.065
			c0-6.399,1.786-10.866,5.36-13.399c3.573-2.53,10.049-3.796,19.428-3.796c9.379,0,15.818,1.266,19.317,3.796
			c3.496,2.533,5.248,7,5.248,13.399C805.4,159.265,803.648,163.62,800.152,166.223z"/>
		<path style="fill:#FFFFFF;" d="M942.631,123.903c-7.965-3.719-18.647-5.583-32.046-5.583c-13.103,0-23.637,1.864-31.599,5.583
			c-7.967,3.724-13.735,9.826-17.308,18.312s-5.359,19.729-5.359,33.722c0,13.996,1.786,25.2,5.359,33.609
			c3.573,8.413,9.341,14.516,17.308,18.312c7.962,3.797,18.496,5.695,31.599,5.695c13.399,0,24.081-1.898,32.046-5.695
			c7.963-3.796,13.696-9.899,17.196-18.312c3.496-8.409,5.248-19.614,5.248-33.609c0-13.993-1.752-25.236-5.248-33.722
			C956.328,133.729,950.595,127.627,942.631,123.903z M934.593,198.492c-1.563,5.36-4.282,9.083-8.152,11.167
			c-3.872,2.086-9.156,3.126-15.856,3.126c-6.553,0-11.724-1.04-15.52-3.126c-3.797-2.084-6.514-5.806-8.151-11.167
			c-1.64-5.359-2.457-12.875-2.457-22.555c0-9.676,0.817-17.196,2.457-22.555c1.637-5.36,4.354-9.118,8.151-11.277
			c3.797-2.157,8.967-3.239,15.52-3.239c6.7,0,11.983,1.082,15.856,3.239c3.87,2.159,6.589,5.917,8.152,11.277
			c1.563,5.359,2.344,12.879,2.344,22.555C936.937,185.616,936.156,193.133,934.593,198.492z"/>
		<path style="fill:#FFFFFF;" d="M1064.002,105.814c0,4.617,0.073,9.122,0.223,13.511c0.101,3.025,0.317,6.031,0.632,9.02
			c-4.724-3.111-9.845-5.455-15.371-7.01c-7.147-2.009-14.443-3.015-21.886-3.015c-9.233,0-16.937,1.752-23.113,5.248
			c-6.18,3.5-10.796,9.38-13.846,17.642c-3.053,8.263-4.578,19.618-4.578,34.057c0,18.909,2.976,33.313,8.933,43.213
			c5.953,9.903,15.929,14.85,29.925,14.85c9.676,0,18.2-2.048,25.57-6.141c6.544-3.634,12.171-7.948,16.896-12.933l2.422,16.395
			h21.216V74.326h-27.022V105.814z M1045.913,209.323c-3.127,0.97-6.699,1.451-10.719,1.451c-5.063,0-9.156-1.005-12.283-3.015
			c-3.126-2.011-5.436-5.583-6.923-10.719c-1.49-5.136-2.234-12.468-2.234-21.997c0-9.973,0.782-17.565,2.346-22.779
			c1.563-5.209,3.942-8.744,7.146-10.607c3.2-1.86,7.482-2.792,12.841-2.792c5.657,0,10.793,0.597,15.41,1.786
			c3.762,0.974,7.947,2.102,12.506,3.37v55.201c-3.136,2.206-5.969,4.089-8.486,5.634
			C1052.24,206.867,1049.04,208.357,1045.913,209.323z"/>
		<path style="fill:#FFFFFF;" d="M1194.308,210.774c-7.223,0.447-13.588,0.67-19.094,0.67c-7.446,0-13.399-1.005-17.866-3.015
			c-4.466-2.011-7.669-5.769-9.602-11.277c-1.115-3.171-1.898-7.134-2.37-11.837h44.131c11.167,0,19.167-2.568,24.007-7.705
			c4.837-5.136,7.181-12.69,7.035-22.666c-0.15-12.06-4.097-21.177-11.836-27.357c-7.744-6.176-20.472-9.268-38.188-9.268
			c-12.656,0-22.967,1.787-30.929,5.36c-7.967,3.573-13.773,9.568-17.419,17.977c-3.65,8.413-5.472,19.841-5.472,34.28
			c0,13.399,1.822,24.341,5.472,32.828c3.646,8.486,9.526,14.704,17.642,18.647c8.113,3.942,18.87,5.917,32.269,5.917
			c4.913,0,10.161-0.262,15.745-0.781c5.583-0.524,10.977-1.305,16.191-2.346c5.209-1.04,9.826-2.379,13.846-4.019l-2.681-17.196
			C1208.488,209.735,1201.527,210.327,1194.308,210.774z M1155.338,141.322c3.87-1.933,9.302-2.903,16.303-2.903
			c8.039,0,13.734,1.193,17.084,3.573c3.35,2.383,5.097,6.626,5.248,12.729c0,3.873-0.709,7.147-2.121,9.826
			c-1.417,2.68-4.656,4.02-9.715,4.02h-37.201c0.24-7.042,0.985-12.643,2.252-16.749
			C1148.751,146.759,1151.465,143.259,1155.338,141.322z"/>
		<path style="fill:#FFFFFF;" d="M173.927,0C77.869,0,0,77.87,0,173.927c0,96.057,77.869,173.927,173.927,173.927
			s173.927-77.869,173.927-173.927C347.853,77.87,269.984,0,173.927,0z M76.138,249.729c7.377-25.984,30.115-103.764,30.115-103.764
			c3.446-8.003,9.974-13.101,18.891-14.747c9.343-1.726,19.707,0.525,29.188,6.207L83.626,291.861
			C72.381,279.416,70.969,267.935,76.138,249.729z M242.531,205.132c-15.643,8.658-29.644,16.449-39.863,22.136l-1.784,0.992
			c-5.744,3.195-10.372,5.77-12.067,6.701c-7.301,2.963-14.813,2.139-21.751-2.391c-7.215-4.712-12.833-12.65-15.912-22.291
			l94.126-42.504c5.11,3.806,8.235,9.545,8.715,16.204C254.628,192.762,250.235,200.868,242.531,205.132z M117.979,108.54
			c2.933-10.657,8.874-19.442,16.823-24.646c7.586-4.967,15.828-5.789,23.847-2.381l98.756,48.705l0.56,0.26
			c15.056,6.571,23.22,18.875,23.682,35.642L117.979,108.54z"/>
	</g>
	<g>
		<path d="M-815.472,105.814c0,4.617,0.073,9.122,0.223,13.511c0.101,3.025,0.317,6.031,0.632,9.02
			c-4.725-3.111-9.845-5.455-15.371-7.01c-7.147-2.009-14.443-3.015-21.886-3.015c-9.233,0-16.937,1.752-23.113,5.248
			c-6.18,3.5-10.796,9.38-13.846,17.642c-3.053,8.263-4.578,19.618-4.578,34.057c0,18.909,2.976,33.313,8.933,43.213
			c5.953,9.903,15.929,14.85,29.925,14.85c9.676,0,18.2-2.048,25.57-6.141c6.543-3.634,12.171-7.948,16.896-12.933l2.422,16.395
			h21.216V74.326h-27.022V105.814z M-833.561,209.323c-3.127,0.97-6.699,1.451-10.719,1.451c-5.063,0-9.156-1.005-12.283-3.015
			c-3.126-2.011-5.436-5.583-6.922-10.719c-1.49-5.136-2.234-12.468-2.234-21.997c0-9.973,0.782-17.565,2.346-22.779
			c1.563-5.209,3.942-8.744,7.146-10.607c3.2-1.86,7.482-2.792,12.841-2.792c5.656,0,10.793,0.597,15.409,1.786
			c3.763,0.974,7.947,2.102,12.506,3.37v55.201c-3.136,2.206-5.969,4.089-8.486,5.634
			C-827.234,206.867-830.434,208.357-833.561,209.323z"/>
		<path d="M-737.536,73.433h-12.06c-5.359,0-8.039,2.68-8.039,8.04v12.506c0,5.359,2.68,8.04,8.039,8.04h12.06
			c5.359,0,8.04-2.681,8.04-8.04V81.473C-729.496,76.113-732.177,73.433-737.536,73.433z"/>
		<rect x="-756.965" y="121.001" width="26.799" height="109.649"/>
		<path d="M-607.007,177.611c4.837-5.136,7.181-12.69,7.035-22.666c-0.15-12.06-4.096-21.177-11.836-27.357
			c-7.744-6.176-20.472-9.268-38.189-9.268c-12.656,0-22.967,1.787-30.929,5.36c-7.967,3.573-13.773,9.568-17.419,17.977
			c-3.65,8.413-5.472,19.841-5.472,34.28c0,13.399,1.822,24.341,5.472,32.828c3.646,8.486,9.526,14.704,17.642,18.647
			c8.113,3.942,18.87,5.917,32.269,5.917c4.913,0,10.161-0.262,15.745-0.781c5.583-0.524,10.977-1.305,16.191-2.346
			c5.209-1.04,9.826-2.379,13.846-4.019l-2.681-17.196c-6.699,0.747-13.661,1.339-20.88,1.786c-7.223,0.447-13.588,0.67-19.094,0.67
			c-7.446,0-13.399-1.005-17.866-3.015c-4.466-2.011-7.669-5.769-9.602-11.277c-1.115-3.171-1.898-7.134-2.371-11.837h44.131
			C-619.848,185.316-611.847,182.748-607.007,177.611z M-675.586,168.567c0.24-7.042,0.985-12.643,2.253-16.749
			c1.563-5.06,4.277-8.559,8.151-10.496c3.87-1.933,9.302-2.903,16.303-2.903c8.039,0,13.734,1.193,17.084,3.573
			c3.35,2.383,5.097,6.626,5.248,12.729c0,3.873-0.709,7.147-2.121,9.826c-1.417,2.68-4.656,4.02-9.715,4.02H-675.586z"/>
		<path d="M-529.184,118.32c-12.359,0-22.184,1.155-29.477,3.462c-7.296,2.31-12.545,6.029-15.745,11.167
			c-3.203,5.136-4.801,11.873-4.801,20.209c0,8.19,1.598,14.816,4.801,19.875c2.424,3.835,6.005,6.898,10.736,9.194
			c-2.224,1.313-4.09,3.087-5.599,5.323c-2.01,2.98-3.276,6.218-3.797,9.714c-0.524,3.5-0.189,7,1.005,10.496
			c1.148,3.378,3.174,6.265,6.059,8.671c-3.072,1.435-5.693,2.937-7.846,4.505c-3.573,2.606-6.14,5.548-7.704,8.821
			s-2.346,7.293-2.346,12.059c0,6.104,0.893,11.201,2.681,15.297c1.786,4.093,4.801,7.443,9.044,10.05
			c4.243,2.603,9.938,4.466,17.084,5.582c7.147,1.117,16.153,1.675,27.022,1.675c13.695,0,24.6-1.005,32.716-3.015
			c8.113-2.01,13.957-5.549,17.53-10.608c3.574-5.063,5.36-12.135,5.36-21.215c0-9.676-2.234-17.084-6.699-22.221
			c-4.467-5.136-12.21-8.374-23.225-9.714l-40.644-5.359c-4.321-0.594-7.111-2.121-8.375-4.578c-1.266-2.457-1.49-5.06-0.67-7.817
			c0.397-1.337,0.964-2.558,1.696-3.667c5.893,1.024,12.868,1.545,20.971,1.545c12.356,0,22.182-1.189,29.479-3.573
			c7.292-2.38,12.506-6.141,15.632-11.277c3.126-5.136,4.689-11.725,4.689-19.764c0-7.215-1.176-13.228-3.518-18.046l14.685-1.606
			l1.563-12.506h-35.665C-509.438,119.216-518.316,118.32-529.184,118.32z M-505.512,227.97c2.68,0.893,4.539,2.121,5.583,3.685
			c1.04,1.563,1.563,3.981,1.563,7.258c0,4.02-0.859,7.108-2.569,9.268c-1.713,2.156-4.728,3.646-9.044,4.466
			c-4.321,0.817-10.423,1.228-18.312,1.228c-7.744,0-13.773-0.412-18.089-1.228c-4.321-0.82-7.335-2.344-9.045-4.578
			c-1.713-2.234-2.568-5.437-2.568-9.603c0-3.126,0.482-5.694,1.451-7.704c0.966-2.011,2.53-4.02,4.69-6.03
			c0.97-0.905,2.089-1.869,3.317-2.879l31.856,3.885C-511.915,226.334-508.192,227.077-505.512,227.97z M-510.09,166.223
			c-3.5,2.606-9.938,3.908-19.317,3.908c-9.379,0-15.855-1.301-19.428-3.908c-3.574-2.603-5.36-6.958-5.36-13.065
			c0-6.399,1.786-10.866,5.36-13.399c3.573-2.53,10.049-3.796,19.428-3.796c9.379,0,15.818,1.266,19.317,3.796
			c3.496,2.533,5.248,7,5.248,13.399C-504.842,159.265-506.594,163.62-510.09,166.223z"/>
		<path d="M-367.61,123.903c-7.965-3.719-18.647-5.583-32.046-5.583c-13.103,0-23.637,1.864-31.599,5.583
			c-7.967,3.724-13.735,9.826-17.308,18.312s-5.359,19.729-5.359,33.722c0,13.996,1.786,25.2,5.359,33.609
			c3.573,8.413,9.341,14.516,17.308,18.312c7.962,3.797,18.496,5.695,31.599,5.695c13.399,0,24.081-1.898,32.046-5.695
			c7.963-3.796,13.696-9.899,17.196-18.312c3.496-8.409,5.248-19.614,5.248-33.609c0-13.993-1.752-25.236-5.248-33.722
			C-353.914,133.729-359.647,127.627-367.61,123.903z M-375.649,198.492c-1.563,5.36-4.282,9.083-8.152,11.167
			c-3.872,2.086-9.156,3.126-15.855,3.126c-6.553,0-11.724-1.04-15.52-3.126c-3.797-2.084-6.514-5.806-8.151-11.167
			c-1.64-5.359-2.457-12.875-2.457-22.555c0-9.676,0.817-17.196,2.457-22.555c1.637-5.36,4.354-9.118,8.151-11.277
			c3.797-2.157,8.967-3.239,15.52-3.239c6.699,0,11.983,1.082,15.855,3.239c3.87,2.159,6.589,5.917,8.152,11.277
			c1.563,5.359,2.344,12.879,2.344,22.555C-373.304,185.616-374.086,193.133-375.649,198.492z"/>
		<path d="M-246.24,105.814c0,4.617,0.073,9.122,0.223,13.511c0.101,3.025,0.317,6.031,0.632,9.02
			c-4.724-3.111-9.845-5.455-15.371-7.01c-7.147-2.009-14.443-3.015-21.886-3.015c-9.233,0-16.937,1.752-23.113,5.248
			c-6.18,3.5-10.796,9.38-13.846,17.642c-3.053,8.263-4.578,19.618-4.578,34.057c0,18.909,2.976,33.313,8.933,43.213
			c5.953,9.903,15.929,14.85,29.925,14.85c9.676,0,18.2-2.048,25.57-6.141c6.544-3.634,12.171-7.948,16.896-12.933l2.422,16.395
			h21.216V74.326h-27.022V105.814z M-264.329,209.323c-3.127,0.97-6.699,1.451-10.719,1.451c-5.063,0-9.156-1.005-12.283-3.015
			c-3.126-2.011-5.436-5.583-6.922-10.719c-1.49-5.136-2.234-12.468-2.234-21.997c0-9.973,0.782-17.565,2.346-22.779
			c1.563-5.209,3.942-8.744,7.146-10.607c3.2-1.86,7.482-2.792,12.841-2.792c5.656,0,10.793,0.597,15.409,1.786
			c3.762,0.974,7.947,2.102,12.506,3.37v55.201c-3.136,2.206-5.969,4.089-8.486,5.634
			C-258.002,206.867-261.202,208.357-264.329,209.323z"/>
		<path d="M-115.934,210.774c-7.223,0.447-13.588,0.67-19.094,0.67c-7.446,0-13.399-1.005-17.866-3.015
			c-4.466-2.011-7.669-5.769-9.602-11.277c-1.115-3.171-1.898-7.134-2.371-11.837h44.131c11.167,0,19.168-2.568,24.007-7.705
			c4.837-5.136,7.181-12.69,7.035-22.666c-0.15-12.06-4.096-21.177-11.836-27.357c-7.744-6.176-20.472-9.268-38.189-9.268
			c-12.656,0-22.967,1.787-30.929,5.36c-7.967,3.573-13.773,9.568-17.419,17.977c-3.65,8.413-5.472,19.841-5.472,34.28
			c0,13.399,1.822,24.341,5.472,32.828c3.646,8.486,9.525,14.704,17.642,18.647c8.113,3.942,18.87,5.917,32.269,5.917
			c4.913,0,10.161-0.262,15.745-0.781c5.583-0.524,10.977-1.305,16.191-2.346c5.209-1.04,9.826-2.379,13.846-4.019l-2.681-17.196
			C-101.754,209.735-108.715,210.327-115.934,210.774z M-154.904,141.322c3.87-1.933,9.302-2.903,16.303-2.903
			c8.039,0,13.734,1.193,17.084,3.573c3.35,2.383,5.097,6.626,5.248,12.729c0,3.873-0.709,7.147-2.121,9.826
			c-1.417,2.68-4.656,4.02-9.715,4.02h-37.201c0.24-7.042,0.985-12.643,2.252-16.749
			C-161.491,146.759-158.777,143.259-154.904,141.322z"/>
		<path d="M-1136.315,0c-96.057,0-173.927,77.87-173.927,173.927c0,96.057,77.869,173.927,173.927,173.927
			s173.927-77.869,173.927-173.927C-962.388,77.87-1040.258,0-1136.315,0z M-1234.104,249.729
			c7.377-25.984,30.115-103.764,30.115-103.764c3.446-8.003,9.974-13.101,18.891-14.747c9.343-1.726,19.707,0.525,29.188,6.207
			l-70.707,154.437C-1237.861,279.416-1239.273,267.935-1234.104,249.729z M-1067.711,205.132
			c-15.643,8.658-29.645,16.449-39.863,22.136l-1.784,0.992c-5.744,3.195-10.372,5.77-12.067,6.701
			c-7.301,2.963-14.813,2.139-21.751-2.391c-7.215-4.712-12.833-12.65-15.912-22.291l94.126-42.504
			c5.11,3.806,8.235,9.545,8.715,16.204C-1055.614,192.762-1060.007,200.868-1067.711,205.132z M-1192.263,108.54
			c2.932-10.657,8.874-19.442,16.823-24.646c7.586-4.967,15.828-5.789,23.847-2.381l98.756,48.705l0.56,0.26
			c15.056,6.571,23.22,18.875,23.682,35.642L-1192.263,108.54z"/>
	</g>
	<g>
		<g>
			<path style="fill:#FFFFFF;" d="M2563.627,123.168c0,5.861,0.093,11.58,0.283,17.152c0.128,3.84,0.403,7.656,0.803,11.45
				c-5.998-3.95-12.498-6.925-19.513-8.899c-9.073-2.551-18.335-3.827-27.784-3.827c-11.72,0-21.501,2.224-29.342,6.662
				c-7.845,4.443-13.705,11.908-17.577,22.396c-3.876,10.489-5.812,24.905-5.812,43.234c0,24.005,3.778,42.29,11.34,54.857
				c7.557,12.571,20.221,18.852,37.989,18.852c12.284,0,23.104-2.6,32.46-7.796c8.306-4.614,15.451-10.09,21.449-16.418
				l3.074,20.813h26.933V83.195h-34.304V123.168z M2540.663,254.57c-3.969,1.231-8.505,1.842-13.608,1.842
				c-6.427,0-11.624-1.276-15.593-3.827c-3.968-2.552-6.9-7.088-8.788-13.608c-1.892-6.52-2.835-15.828-2.835-27.925
				c0-12.66,0.993-22.299,2.978-28.918c1.985-6.613,5.005-11.101,9.071-13.466c4.062-2.361,9.498-3.544,16.301-3.544
				c7.181,0,13.701,0.758,19.562,2.268c4.777,1.236,10.089,2.669,15.876,4.278v70.076c-3.981,2.8-7.577,5.191-10.773,7.152
				C2548.695,251.452,2544.633,253.344,2540.663,254.57z"/>
			<path style="fill:#FFFFFF;" d="M2662.565,82.061h-15.31c-6.803,0-10.205,3.402-10.205,10.206v15.876
				c0,6.803,3.402,10.206,10.205,10.206h15.31c6.803,0,10.206-3.403,10.206-10.206V92.267
				C2672.771,85.463,2669.368,82.061,2662.565,82.061z"/>
			<rect x="2637.9" y="142.447" style="fill:#FFFFFF;" width="34.021" height="139.197"/>
			<path style="fill:#FFFFFF;" d="M2828.268,214.313c6.14-6.52,9.116-16.11,8.93-28.774c-0.19-15.31-5.2-26.884-15.025-34.729
				c-9.83-7.84-25.989-11.766-48.479-11.766c-16.066,0-29.156,2.269-39.263,6.805c-10.114,4.536-17.484,12.146-22.113,22.821
				c-4.634,10.68-6.947,25.188-6.947,43.517c0,17.01,2.313,30.901,6.947,41.675c4.628,10.773,12.092,18.666,22.396,23.672
				c10.299,5.005,23.955,7.512,40.965,7.512c6.237,0,12.899-0.332,19.987-0.992c7.088-0.665,13.935-1.656,20.553-2.978
				c6.613-1.32,12.474-3.02,17.577-5.102l-3.403-21.83c-8.505,0.948-17.342,1.7-26.506,2.268c-9.17,0.568-17.249,0.851-24.24,0.851
				c-9.453,0-17.01-1.276-22.68-3.827c-5.669-2.552-9.736-7.323-12.19-14.317c-1.416-4.026-2.409-9.056-3.009-15.026h56.023
				C2811.967,224.094,2822.124,220.834,2828.268,214.313z M2741.21,202.832c0.304-8.939,1.25-16.05,2.86-21.262
				c1.985-6.423,5.43-10.866,10.347-13.325c4.913-2.454,11.809-3.685,20.696-3.685c10.205,0,17.435,1.514,21.688,4.536
				c4.252,3.026,6.471,8.412,6.663,16.159c0,4.917-0.9,9.072-2.693,12.474c-1.799,3.402-5.91,5.103-12.333,5.103H2741.21z"/>
			
				<linearGradient id="SVGID_00000021819325677356977980000009224993298698081957_" gradientUnits="userSpaceOnUse" x1="2933.2402" y1="502.9667" x2="2931.2239" y2="81.5195">
				<stop  offset="0" style="stop-color:#1700E9"/>
				<stop  offset="1" style="stop-color:#992AFF"/>
			</linearGradient>
			<path style="fill:url(#SVGID_00000021819325677356977980000009224993298698081957_);" d="M2927.063,139.044
				c-15.69,0-28.163,1.466-37.421,4.395c-9.262,2.933-15.925,7.654-19.987,14.176c-4.066,6.52-6.095,15.073-6.095,25.655
				c0,10.397,2.028,18.808,6.095,25.231c3.077,4.869,7.623,8.756,13.629,11.671c-2.823,1.666-5.192,3.919-7.107,6.757
				c-2.552,3.783-4.159,7.894-4.82,12.332c-0.665,4.443-0.24,8.887,1.276,13.325c1.458,4.288,4.029,7.953,7.691,11.007
				c-3.9,1.822-7.227,3.728-9.961,5.719c-4.535,3.309-7.795,7.043-9.78,11.198c-1.985,4.155-2.978,9.258-2.978,15.308
				c0,7.748,1.134,14.219,3.403,19.42c2.268,5.196,6.095,9.449,11.481,12.759c5.386,3.304,12.616,5.669,21.688,7.086
				c9.073,1.418,20.506,2.127,34.304,2.127c17.386,0,31.229-1.276,41.532-3.827c10.299-2.552,17.718-7.044,22.254-13.467
				c4.537-6.427,6.805-15.405,6.805-26.931c0-12.284-2.835-21.687-8.505-28.209c-5.671-6.52-15.5-10.63-29.484-12.332l-51.597-6.803
				c-5.485-0.754-9.027-2.693-10.632-5.812c-1.607-3.119-1.892-6.423-0.851-9.923c0.504-1.697,1.225-3.247,2.153-4.655
				c7.481,1.3,16.336,1.962,26.622,1.962c15.686,0,28.16-1.51,37.422-4.536c9.257-3.021,15.876-7.796,19.845-14.317
				c3.968-6.52,5.952-14.884,5.952-25.091c0-9.16-1.493-16.792-4.466-22.909l18.642-2.038l1.985-15.876h-45.276
				C2952.13,140.181,2940.86,139.044,2927.063,139.044z M2957.114,278.243c3.402,1.134,5.762,2.693,7.088,4.678
				c1.32,1.985,1.985,5.054,1.985,9.213c0,5.103-1.09,9.023-3.261,11.766c-2.175,2.737-6.002,4.629-11.481,5.669
				c-5.485,1.037-13.232,1.559-23.247,1.559c-9.83,0-17.484-0.523-22.964-1.559c-5.485-1.041-9.312-2.976-11.482-5.812
				c-2.175-2.835-3.26-6.902-3.26-12.191c0-3.968,0.611-7.229,1.843-9.78c1.227-2.552,3.211-5.103,5.954-7.655
				c1.232-1.148,2.652-2.373,4.21-3.655l40.441,4.931C2948.985,276.165,2953.712,277.109,2957.114,278.243z M2951.302,199.855
				c-4.443,3.309-12.616,4.961-24.523,4.961s-20.128-1.652-24.664-4.961c-4.537-3.304-6.805-8.833-6.805-16.586
				c0-8.123,2.268-13.794,6.805-17.01c4.536-3.212,12.757-4.819,24.664-4.819s20.08,1.607,24.523,4.819
				c4.438,3.216,6.662,8.887,6.662,17.01C2957.965,191.022,2955.741,196.551,2951.302,199.855z"/>
			
				<linearGradient id="SVGID_00000111163254114963688820000005350846074642196387_" gradientUnits="userSpaceOnUse" x1="3093.0254" y1="502.2022" x2="3091.009" y2="80.755">
				<stop  offset="0" style="stop-color:#1700E9"/>
				<stop  offset="1" style="stop-color:#992AFF"/>
			</linearGradient>
			<path style="fill:url(#SVGID_00000111163254114963688820000005350846074642196387_);" d="M3132.177,146.132
				c-10.112-4.721-23.672-7.088-40.682-7.088c-16.634,0-30.006,2.366-40.114,7.088c-10.113,4.727-17.437,12.474-21.972,23.247
				c-4.536,10.773-6.803,25.045-6.803,42.809c0,17.767,2.268,31.991,6.803,42.666c4.535,10.68,11.859,18.428,21.972,23.247
				c10.108,4.82,23.48,7.23,40.114,7.23c17.01,0,30.57-2.41,40.682-7.23c10.109-4.819,17.387-12.567,21.83-23.247
				c4.438-10.675,6.662-24.899,6.662-42.666c0-17.763-2.224-32.036-6.662-42.809
				C3149.564,158.606,3142.286,150.859,3132.177,146.132z M3121.972,240.82c-1.985,6.805-5.436,11.53-10.349,14.176
				c-4.916,2.648-11.624,3.968-20.128,3.968c-8.319,0-14.883-1.32-19.703-3.968c-4.82-2.645-8.27-7.371-10.347-14.176
				c-2.082-6.803-3.119-16.345-3.119-28.633c0-12.284,1.037-21.83,3.119-28.633c2.078-6.805,5.527-11.575,10.347-14.317
				c4.82-2.738,11.384-4.112,19.703-4.112c8.505,0,15.212,1.373,20.128,4.112c4.913,2.741,8.364,7.512,10.349,14.317
				c1.985,6.803,2.976,16.349,2.976,28.633C3124.948,224.475,3123.957,234.017,3121.972,240.82z"/>
			
				<linearGradient id="SVGID_00000040532678705724995400000006080327155993499562_" gradientUnits="userSpaceOnUse" x1="3255.6292" y1="501.4242" x2="3253.6128" y2="79.9769">
				<stop  offset="0" style="stop-color:#1700E9"/>
				<stop  offset="1" style="stop-color:#992AFF"/>
			</linearGradient>
			<path style="fill:url(#SVGID_00000040532678705724995400000006080327155993499562_);" d="M3286.254,123.168
				c0,5.861,0.093,11.58,0.283,17.152c0.128,3.84,0.403,7.656,0.803,11.45c-5.998-3.95-12.498-6.925-19.512-8.899
				c-9.073-2.551-18.335-3.827-27.784-3.827c-11.721,0-21.502,2.224-29.342,6.662c-7.846,4.443-13.705,11.908-17.577,22.396
				c-3.876,10.489-5.812,24.905-5.812,43.234c0,24.005,3.778,42.29,11.34,54.857c7.557,12.571,20.221,18.852,37.989,18.852
				c12.284,0,23.104-2.6,32.46-7.796c8.307-4.614,15.451-10.09,21.449-16.418l3.074,20.813h26.933V83.195h-34.304V123.168z
				 M3263.291,254.57c-3.969,1.231-8.505,1.842-13.608,1.842c-6.427,0-11.623-1.276-15.593-3.827
				c-3.968-2.552-6.9-7.088-8.788-13.608c-1.892-6.52-2.835-15.828-2.835-27.925c0-12.66,0.993-22.299,2.978-28.918
				c1.985-6.613,5.004-11.101,9.071-13.466c4.062-2.361,9.498-3.544,16.301-3.544c7.181,0,13.701,0.758,19.562,2.268
				c4.776,1.236,10.089,2.669,15.876,4.278v70.076c-3.981,2.8-7.577,5.191-10.772,7.152
				C3271.323,251.452,3267.26,253.344,3263.291,254.57z"/>
			
				<linearGradient id="SVGID_00000032617277689072587400000014147800075671913881_" gradientUnits="userSpaceOnUse" x1="3420.5164" y1="500.6353" x2="3418.4998" y2="79.188">
				<stop  offset="0" style="stop-color:#1700E9"/>
				<stop  offset="1" style="stop-color:#992AFF"/>
			</linearGradient>
			<path style="fill:url(#SVGID_00000032617277689072587400000014147800075671913881_);" d="M3451.675,256.413
				c-9.169,0.568-17.249,0.851-24.24,0.851c-9.453,0-17.01-1.276-22.68-3.827c-5.669-2.552-9.736-7.323-12.189-14.317
				c-1.416-4.026-2.409-9.056-3.01-15.026h56.023c14.176,0,24.333-3.259,30.477-9.781c6.14-6.52,9.116-16.11,8.93-28.774
				c-0.19-15.31-5.2-26.884-15.025-34.729c-9.83-7.84-25.989-11.766-48.479-11.766c-16.066,0-29.156,2.269-39.263,6.805
				c-10.113,4.536-17.484,12.146-22.113,22.821c-4.634,10.68-6.947,25.188-6.947,43.517c0,17.01,2.313,30.901,6.947,41.675
				c4.629,10.773,12.093,18.666,22.396,23.672c10.299,5.005,23.955,7.512,40.965,7.512c6.237,0,12.9-0.332,19.987-0.992
				c7.088-0.665,13.935-1.656,20.554-2.978c6.613-1.32,12.474-3.02,17.577-5.102l-3.403-21.83
				C3469.676,255.093,3460.839,255.845,3451.675,256.413z M3402.204,168.245c4.913-2.454,11.809-3.685,20.696-3.685
				c10.205,0,17.435,1.514,21.688,4.536c4.252,3.026,6.471,8.412,6.662,16.159c0,4.917-0.9,9.072-2.693,12.474
				c-1.799,3.402-5.91,5.103-12.333,5.103h-47.226c0.304-8.939,1.25-16.05,2.859-21.262
				C3393.841,175.146,3397.286,170.704,3402.204,168.245z"/>
		</g>
		
			<linearGradient id="SVGID_00000092425984840807254470000016908454601121195170_" gradientUnits="userSpaceOnUse" x1="2974.8398" y1="98.6185" x2="2974.8398" y2="-489.8532">
			<stop  offset="0" style="stop-color:#1700E9"/>
			<stop  offset="1" style="stop-color:#992AFF"/>
		</linearGradient>
		<path style="fill:url(#SVGID_00000092425984840807254470000016908454601121195170_);" d="M2974.84-432
			c-121.942,0-220.796,98.854-220.796,220.796c0,121.942,98.854,220.796,220.796,220.796c121.943,0,220.796-98.854,220.796-220.796
			C3195.636-333.146,3096.782-432,2974.84-432z M2850.699-114.975c9.365-32.987,38.231-131.726,38.231-131.726
			c4.374-10.159,12.662-16.631,23.982-18.721c11.861-2.191,25.017,0.666,37.053,7.879l-89.76,196.054
			C2845.929-77.287,2844.138-91.862,2850.699-114.975z M3061.931-171.59c-19.859,10.991-37.633,20.882-50.605,28.101l-2.264,1.259
			c-7.291,4.057-13.167,7.326-15.319,8.506c-9.269,3.762-18.805,2.715-27.613-3.035c-9.16-5.981-16.291-16.059-20.2-28.298
			l119.491-53.957c6.487,4.832,10.454,12.117,11.063,20.57C3077.288-187.293,3071.712-177.003,3061.931-171.59z M2903.815-294.211
			c3.723-13.529,11.265-24.681,21.356-31.288c9.63-6.306,20.094-7.349,30.273-3.022l125.369,61.83l0.71,0.33
			c19.113,8.341,29.477,23.962,30.063,45.247L2903.815-294.211z"/>
	</g>
	
	<g>
		<g>
			<path d="M1424.286,987.168c0,5.861,0.093,11.58,0.283,17.152c0.128,3.84,0.403,7.656,0.803,11.45
				c-5.998-3.95-12.499-6.926-19.513-8.899c-9.073-2.551-18.335-3.827-27.784-3.827c-11.721,0-21.501,2.224-29.342,6.662
				c-7.846,4.443-13.705,11.908-17.577,22.396c-3.876,10.49-5.812,24.905-5.812,43.234c0,24.005,3.778,42.29,11.34,54.857
				c7.557,12.571,20.221,18.852,37.989,18.852c12.284,0,23.104-2.6,32.46-7.796c8.307-4.614,15.451-10.09,21.449-16.418
				l3.074,20.813h26.933V947.195h-34.304V987.168z M1401.323,1118.57c-3.969,1.231-8.505,1.842-13.608,1.842
				c-6.427,0-11.623-1.276-15.593-3.827c-3.968-2.552-6.9-7.088-8.788-13.608c-1.892-6.52-2.835-15.828-2.835-27.925
				c0-12.66,0.993-22.299,2.978-28.918c1.985-6.613,5.005-11.101,9.071-13.466c4.062-2.361,9.498-3.544,16.301-3.544
				c7.181,0,13.701,0.758,19.562,2.268c4.777,1.236,10.089,2.668,15.876,4.278v70.076c-3.981,2.8-7.577,5.19-10.773,7.152
				C1409.354,1115.452,1405.292,1117.344,1401.323,1118.57z"/>
			<path d="M1523.224,946.061h-15.309c-6.803,0-10.205,3.402-10.205,10.206v15.876c0,6.803,3.402,10.206,10.205,10.206h15.309
				c6.803,0,10.206-3.403,10.206-10.206v-15.876C1533.431,949.463,1530.028,946.061,1523.224,946.061z"/>
			<rect x="1498.559" y="1006.447" width="34.021" height="139.197"/>
			<path d="M1688.928,1078.313c6.14-6.52,9.116-16.11,8.93-28.774c-0.19-15.31-5.2-26.884-15.025-34.729
				c-9.83-7.84-25.989-11.766-48.479-11.766c-16.066,0-29.156,2.269-39.263,6.805c-10.113,4.536-17.484,12.146-22.113,22.821
				c-4.634,10.68-6.947,25.188-6.947,43.517c0,17.01,2.313,30.901,6.947,41.675c4.628,10.773,12.092,18.666,22.396,23.672
				c10.299,5.005,23.955,7.512,40.965,7.512c6.237,0,12.9-0.332,19.987-0.992c7.088-0.665,13.935-1.656,20.554-2.978
				c6.613-1.32,12.474-3.02,17.577-5.102l-3.403-21.83c-8.505,0.948-17.342,1.7-26.506,2.268c-9.17,0.568-17.249,0.851-24.24,0.851
				c-9.453,0-17.01-1.276-22.68-3.827c-5.669-2.552-9.736-7.323-12.19-14.317c-1.416-4.026-2.409-9.056-3.009-15.026h56.023
				C1672.626,1088.094,1682.784,1084.834,1688.928,1078.313z M1601.869,1066.832c0.305-8.939,1.25-16.05,2.86-21.262
				c1.985-6.423,5.43-10.866,10.347-13.325c4.913-2.454,11.809-3.685,20.696-3.685c10.205,0,17.435,1.514,21.688,4.536
				c4.252,3.026,6.471,8.412,6.662,16.159c0,4.917-0.9,9.073-2.693,12.474c-1.799,3.402-5.91,5.103-12.333,5.103H1601.869z"/>
			<path d="M1787.722,1003.044c-15.69,0-28.163,1.466-37.421,4.395c-9.263,2.933-15.925,7.654-19.987,14.176
				c-4.067,6.52-6.095,15.073-6.095,25.655c0,10.396,2.028,18.808,6.095,25.231c3.077,4.869,7.623,8.756,13.629,11.671
				c-2.823,1.666-5.192,3.919-7.107,6.757c-2.552,3.783-4.16,7.894-4.82,12.332c-0.665,4.443-0.24,8.887,1.276,13.325
				c1.458,4.288,4.029,7.953,7.691,11.007c-3.9,1.822-7.227,3.728-9.961,5.719c-4.536,3.309-7.795,7.043-9.78,11.198
				c-1.985,4.155-2.978,9.258-2.978,15.308c0,7.749,1.134,14.219,3.403,19.42c2.268,5.196,6.095,9.448,11.481,12.759
				c5.386,3.305,12.616,5.669,21.687,7.086c9.073,1.418,20.506,2.127,34.304,2.127c17.386,0,31.229-1.276,41.533-3.827
				c10.299-2.552,17.718-7.044,22.254-13.467c4.537-6.427,6.805-15.405,6.805-26.932c0-12.284-2.835-21.687-8.505-28.209
				c-5.671-6.52-15.5-10.63-29.484-12.332l-51.597-6.803c-5.485-0.754-9.027-2.693-10.632-5.812
				c-1.607-3.119-1.892-6.423-0.851-9.923c0.504-1.697,1.224-3.247,2.153-4.655c7.481,1.3,16.336,1.962,26.622,1.962
				c15.686,0,28.16-1.51,37.422-4.536c9.257-3.021,15.876-7.796,19.845-14.317c3.968-6.52,5.953-14.884,5.953-25.091
				c0-9.16-1.493-16.792-4.466-22.909l18.642-2.038l1.985-15.876h-45.276C1812.789,1004.181,1801.519,1003.044,1787.722,1003.044z
				 M1817.773,1142.243c3.402,1.134,5.762,2.693,7.088,4.678c1.32,1.985,1.985,5.054,1.985,9.213c0,5.103-1.09,9.023-3.261,11.766
				c-2.175,2.737-6.002,4.628-11.481,5.669c-5.485,1.037-13.232,1.559-23.247,1.559c-9.83,0-17.484-0.523-22.964-1.559
				c-5.485-1.041-9.312-2.976-11.483-5.812c-2.175-2.835-3.259-6.902-3.259-12.191c0-3.968,0.611-7.229,1.842-9.78
				c1.227-2.552,3.212-5.103,5.954-7.655c1.232-1.148,2.652-2.373,4.211-3.655l40.441,4.931
				C1809.645,1140.165,1814.372,1141.109,1817.773,1142.243z M1811.962,1063.855c-4.443,3.309-12.616,4.961-24.523,4.961
				c-11.906,0-20.128-1.652-24.664-4.961c-4.537-3.304-6.805-8.833-6.805-16.586c0-8.123,2.268-13.794,6.805-17.01
				c4.536-3.212,12.757-4.819,24.664-4.819c11.906,0,20.08,1.607,24.523,4.819c4.438,3.216,6.662,8.887,6.662,17.01
				C1818.624,1055.022,1816.4,1060.551,1811.962,1063.855z"/>
			<path d="M1992.837,1010.132c-10.112-4.721-23.672-7.088-40.682-7.088c-16.634,0-30.006,2.366-40.114,7.088
				c-10.113,4.727-17.437,12.474-21.972,23.247s-6.803,25.045-6.803,42.809c0,17.767,2.268,31.991,6.803,42.666
				c4.536,10.68,11.859,18.428,21.972,23.247c10.108,4.82,23.48,7.23,40.114,7.23c17.01,0,30.57-2.41,40.682-7.23
				c10.109-4.819,17.387-12.567,21.83-23.247c4.438-10.675,6.662-24.899,6.662-42.666c0-17.763-2.224-32.036-6.662-42.809
				C2010.224,1022.606,2002.946,1014.859,1992.837,1010.132z M1982.632,1104.82c-1.985,6.805-5.436,11.531-10.349,14.176
				c-4.916,2.648-11.623,3.968-20.128,3.968c-8.319,0-14.883-1.32-19.703-3.968c-4.82-2.645-8.27-7.371-10.347-14.176
				c-2.082-6.803-3.119-16.345-3.119-28.633c0-12.284,1.037-21.83,3.119-28.633c2.078-6.805,5.527-11.575,10.347-14.317
				c4.82-2.738,11.384-4.112,19.703-4.112c8.505,0,15.212,1.373,20.128,4.112c4.913,2.741,8.364,7.512,10.349,14.317
				c1.985,6.803,2.976,16.349,2.976,28.633C1985.608,1088.475,1984.616,1098.017,1982.632,1104.82z"/>
			<path d="M2146.914,987.168c0,5.861,0.093,11.58,0.283,17.152c0.128,3.84,0.403,7.656,0.803,11.45
				c-5.998-3.95-12.498-6.926-19.513-8.899c-9.073-2.551-18.335-3.827-27.784-3.827c-11.72,0-21.501,2.224-29.342,6.662
				c-7.845,4.443-13.705,11.908-17.577,22.396c-3.876,10.49-5.812,24.905-5.812,43.234c0,24.005,3.778,42.29,11.34,54.857
				c7.557,12.571,20.221,18.852,37.989,18.852c12.284,0,23.104-2.6,32.46-7.796c8.307-4.614,15.451-10.09,21.449-16.418
				l3.074,20.813h26.933V947.195h-34.304V987.168z M2123.95,1118.57c-3.969,1.231-8.505,1.842-13.608,1.842
				c-6.427,0-11.624-1.276-15.593-3.827c-3.968-2.552-6.9-7.088-8.788-13.608c-1.892-6.52-2.835-15.828-2.835-27.925
				c0-12.66,0.993-22.299,2.978-28.918c1.985-6.613,5.005-11.101,9.071-13.466c4.062-2.361,9.498-3.544,16.301-3.544
				c7.181,0,13.701,0.758,19.562,2.268c4.776,1.236,10.089,2.668,15.876,4.278v70.076c-3.981,2.8-7.577,5.19-10.773,7.152
				C2131.982,1115.452,2127.919,1117.344,2123.95,1118.57z"/>
			<path d="M2312.334,1120.413c-9.17,0.568-17.249,0.851-24.24,0.851c-9.453,0-17.01-1.276-22.68-3.827
				c-5.669-2.552-9.736-7.323-12.19-14.317c-1.416-4.026-2.409-9.056-3.009-15.026h56.023c14.176,0,24.333-3.259,30.477-9.781
				c6.14-6.52,9.116-16.11,8.93-28.774c-0.19-15.31-5.2-26.884-15.025-34.729c-9.83-7.84-25.989-11.766-48.479-11.766
				c-16.066,0-29.156,2.269-39.263,6.805c-10.113,4.536-17.484,12.146-22.113,22.821c-4.634,10.68-6.947,25.188-6.947,43.517
				c0,17.01,2.313,30.901,6.947,41.675c4.628,10.773,12.092,18.666,22.396,23.672c10.299,5.005,23.955,7.512,40.965,7.512
				c6.237,0,12.899-0.332,19.987-0.992c7.088-0.665,13.935-1.656,20.553-2.978c6.613-1.32,12.474-3.02,17.577-5.102l-3.403-21.83
				C2330.335,1119.093,2321.498,1119.845,2312.334,1120.413z M2262.863,1032.245c4.913-2.454,11.809-3.685,20.696-3.685
				c10.205,0,17.435,1.514,21.687,4.536c4.252,3.026,6.471,8.412,6.663,16.159c0,4.917-0.9,9.073-2.693,12.474
				c-1.799,3.402-5.91,5.103-12.333,5.103h-47.226c0.304-8.939,1.25-16.05,2.859-21.262
				C2254.5,1039.146,2257.946,1034.704,2262.863,1032.245z"/>
		</g>
		<path d="M1835.499,432c-121.943,0-220.796,98.854-220.796,220.796c0,121.942,98.854,220.796,220.796,220.796
			s220.796-98.854,220.796-220.796C2056.295,530.854,1957.442,432,1835.499,432z M1711.359,749.025
			c9.365-32.987,38.231-131.726,38.231-131.726c4.374-10.159,12.662-16.631,23.982-18.721c11.861-2.191,25.017,0.666,37.053,7.879
			l-89.761,196.054C1706.589,786.713,1704.797,772.138,1711.359,749.025z M1922.591,692.41
			c-19.859,10.991-37.633,20.882-50.605,28.101l-2.264,1.259c-7.291,4.057-13.167,7.326-15.319,8.506
			c-9.269,3.762-18.805,2.715-27.613-3.035c-9.16-5.981-16.291-16.059-20.2-28.299l119.491-53.957
			c6.487,4.832,10.453,12.117,11.063,20.57C1937.947,676.707,1932.371,686.997,1922.591,692.41z M1764.474,569.789
			c3.723-13.529,11.265-24.681,21.356-31.288c9.63-6.306,20.094-7.349,30.273-3.022l125.369,61.83l0.711,0.33
			c19.113,8.341,29.477,23.962,30.063,45.247L1764.474,569.789z"/>
	</g>
	<g>
		<path style="fill:#FFFFFF;" d="M655.9,432c-194.446,0-352.076,157.63-352.076,352.076c0,194.446,157.629,352.076,352.076,352.076
			s352.076-157.629,352.076-352.076C1007.976,589.63,850.347,432,655.9,432z M457.949,937.521
			c14.934-52.599,60.962-210.047,60.962-210.047c6.975-16.2,20.191-26.52,38.241-29.853c18.913-3.494,39.892,1.062,59.084,12.564
			l-143.13,312.623C450.342,997.616,447.485,974.376,457.949,937.521z M794.774,847.244c-31.666,17.526-60.009,33.298-80.693,44.81
			l-3.611,2.008c-11.627,6.469-20.995,11.681-24.427,13.564c-14.78,5.999-29.986,4.329-44.03-4.84
			c-14.606-9.538-25.978-25.608-32.21-45.124l190.537-86.039c10.344,7.705,16.669,19.322,17.642,32.801
			C819.261,822.204,810.369,838.613,794.774,847.244z M542.646,651.715c5.936-21.573,17.963-39.356,34.054-49.891
			c15.356-10.056,32.041-11.719,48.273-4.819l199.91,98.592l1.133,0.527c30.477,13.301,47.003,38.209,47.938,72.15L542.646,651.715z
			"/>
	</g>
	<g>
		<path d="M-189.111,432c-194.446,0-352.076,157.63-352.076,352.076c0,194.446,157.629,352.076,352.076,352.076
			s352.076-157.629,352.076-352.076C162.965,589.63,5.336,432-189.111,432z M-387.062,937.521
			c14.934-52.599,60.962-210.047,60.962-210.047c6.975-16.2,20.191-26.52,38.241-29.853c18.913-3.494,39.892,1.062,59.084,12.564
			l-143.13,312.623C-394.669,997.616-397.526,974.376-387.062,937.521z M-50.237,847.244c-31.666,17.526-60.009,33.298-80.693,44.81
			l-3.611,2.008c-11.627,6.469-20.995,11.681-24.427,13.564c-14.78,5.999-29.986,4.329-44.03-4.84
			c-14.606-9.538-25.978-25.608-32.21-45.124l190.537-86.039c10.344,7.705,16.669,19.322,17.642,32.801
			C-25.75,822.204-34.642,838.613-50.237,847.244z M-302.365,651.715c5.936-21.573,17.963-39.356,34.054-49.891
			c15.356-10.056,32.041-11.719,48.273-4.819l199.91,98.592l1.133,0.527c30.477,13.301,47.003,38.209,47.938,72.15L-302.365,651.715
			z"/>
	</g>
	<g>
		
			<linearGradient id="SVGID_00000119107905886306601240000006987331335898647451_" gradientUnits="userSpaceOnUse" x1="-958.1659" y1="1278.1112" x2="-958.1659" y2="339.7487">
			<stop  offset="0" style="stop-color:#1700E9"/>
			<stop  offset="1" style="stop-color:#992AFF"/>
		</linearGradient>
		<path style="fill:url(#SVGID_00000119107905886306601240000006987331335898647451_);" d="M-958.166,432
			c-194.447,0-352.076,157.63-352.076,352.076c0,194.446,157.629,352.076,352.076,352.076S-606.09,978.522-606.09,784.076
			C-606.09,589.63-763.719,432-958.166,432z M-1156.117,937.521c14.934-52.599,60.962-210.047,60.962-210.047
			c6.975-16.2,20.191-26.52,38.241-29.853c18.913-3.494,39.892,1.062,59.084,12.564l-143.13,312.623
			C-1163.724,997.616-1166.58,974.376-1156.117,937.521z M-819.292,847.244c-31.666,17.526-60.009,33.298-80.694,44.81l-3.61,2.008
			c-11.627,6.469-20.995,11.681-24.427,13.564c-14.78,5.999-29.986,4.329-44.03-4.84c-14.606-9.538-25.978-25.608-32.21-45.124
			l190.537-86.039c10.344,7.705,16.669,19.322,17.642,32.801C-794.805,822.204-803.697,838.613-819.292,847.244z M-1071.42,651.715
			c5.936-21.573,17.963-39.356,34.055-49.891c15.356-10.056,32.041-11.719,48.273-4.819l199.91,98.592l1.133,0.527
			c30.477,13.301,47.003,38.209,47.938,72.15L-1071.42,651.715z"/>
	</g>
	<g>
		<g>
			<path d="M1424.286,123.168c0,5.861,0.093,11.58,0.283,17.152c0.128,3.84,0.403,7.656,0.803,11.45
				c-5.998-3.95-12.499-6.925-19.513-8.899c-9.073-2.551-18.335-3.827-27.784-3.827c-11.721,0-21.501,2.224-29.342,6.662
				c-7.846,4.443-13.705,11.908-17.577,22.396c-3.876,10.489-5.812,24.905-5.812,43.234c0,24.005,3.778,42.29,11.34,54.857
				c7.557,12.571,20.221,18.852,37.989,18.852c12.284,0,23.104-2.6,32.46-7.796c8.307-4.614,15.451-10.09,21.449-16.418
				l3.074,20.813h26.933V83.195h-34.304V123.168z M1401.323,254.57c-3.969,1.231-8.505,1.842-13.608,1.842
				c-6.427,0-11.623-1.276-15.593-3.827c-3.968-2.552-6.9-7.088-8.788-13.608c-1.892-6.52-2.835-15.828-2.835-27.925
				c0-12.66,0.993-22.299,2.978-28.918c1.985-6.613,5.005-11.101,9.071-13.466c4.062-2.361,9.498-3.544,16.301-3.544
				c7.181,0,13.701,0.758,19.562,2.268c4.777,1.236,10.089,2.669,15.876,4.278v70.076c-3.981,2.8-7.577,5.191-10.773,7.152
				C1409.354,251.452,1405.292,253.344,1401.323,254.57z"/>
			<path d="M1523.224,82.061h-15.309c-6.803,0-10.205,3.402-10.205,10.206v15.876c0,6.803,3.402,10.206,10.205,10.206h15.309
				c6.803,0,10.206-3.403,10.206-10.206V92.267C1533.431,85.463,1530.028,82.061,1523.224,82.061z"/>
			<rect x="1498.559" y="142.447" width="34.021" height="139.197"/>
			<path d="M1688.928,214.313c6.14-6.52,9.116-16.11,8.93-28.774c-0.19-15.31-5.2-26.884-15.025-34.729
				c-9.83-7.84-25.989-11.766-48.479-11.766c-16.066,0-29.156,2.269-39.263,6.805c-10.113,4.536-17.484,12.146-22.113,22.821
				c-4.634,10.68-6.947,25.188-6.947,43.517c0,17.01,2.313,30.901,6.947,41.675c4.628,10.773,12.092,18.666,22.396,23.672
				c10.299,5.005,23.955,7.512,40.965,7.512c6.237,0,12.9-0.332,19.987-0.992c7.088-0.665,13.935-1.656,20.554-2.978
				c6.613-1.32,12.474-3.02,17.577-5.102l-3.403-21.83c-8.505,0.948-17.342,1.7-26.506,2.268c-9.17,0.568-17.249,0.851-24.24,0.851
				c-9.453,0-17.01-1.276-22.68-3.827c-5.669-2.552-9.736-7.323-12.19-14.317c-1.416-4.026-2.409-9.056-3.009-15.026h56.023
				C1672.626,224.094,1682.784,220.834,1688.928,214.313z M1601.869,202.832c0.305-8.939,1.25-16.05,2.86-21.262
				c1.985-6.423,5.43-10.866,10.347-13.325c4.913-2.454,11.809-3.685,20.696-3.685c10.205,0,17.435,1.514,21.688,4.536
				c4.252,3.026,6.471,8.412,6.662,16.159c0,4.917-0.9,9.072-2.693,12.474c-1.799,3.402-5.91,5.103-12.333,5.103H1601.869z"/>
			
				<linearGradient id="SVGID_00000106832017124486066850000013367975263050524591_" gradientUnits="userSpaceOnUse" x1="1793.8997" y1="502.9667" x2="1791.8832" y2="81.5195">
				<stop  offset="0" style="stop-color:#1700E9"/>
				<stop  offset="1" style="stop-color:#992AFF"/>
			</linearGradient>
			<path style="fill:url(#SVGID_00000106832017124486066850000013367975263050524591_);" d="M1787.722,139.044
				c-15.69,0-28.163,1.466-37.421,4.395c-9.263,2.933-15.925,7.654-19.987,14.176c-4.067,6.52-6.095,15.073-6.095,25.655
				c0,10.397,2.028,18.808,6.095,25.231c3.077,4.869,7.623,8.756,13.629,11.671c-2.823,1.666-5.192,3.919-7.107,6.757
				c-2.552,3.783-4.16,7.894-4.82,12.332c-0.665,4.443-0.24,8.887,1.276,13.325c1.458,4.288,4.029,7.953,7.691,11.007
				c-3.9,1.822-7.227,3.728-9.961,5.719c-4.536,3.309-7.795,7.043-9.78,11.198c-1.985,4.155-2.978,9.258-2.978,15.308
				c0,7.748,1.134,14.219,3.403,19.42c2.268,5.196,6.095,9.449,11.481,12.759c5.386,3.304,12.616,5.669,21.687,7.086
				c9.073,1.418,20.506,2.127,34.304,2.127c17.386,0,31.229-1.276,41.533-3.827c10.299-2.552,17.718-7.044,22.254-13.467
				c4.537-6.427,6.805-15.405,6.805-26.931c0-12.284-2.835-21.687-8.505-28.209c-5.671-6.52-15.5-10.63-29.484-12.332l-51.597-6.803
				c-5.485-0.754-9.027-2.693-10.632-5.812c-1.607-3.119-1.892-6.423-0.851-9.923c0.504-1.697,1.224-3.247,2.153-4.655
				c7.481,1.3,16.336,1.962,26.622,1.962c15.686,0,28.16-1.51,37.422-4.536c9.257-3.021,15.876-7.796,19.845-14.317
				c3.968-6.52,5.953-14.884,5.953-25.091c0-9.16-1.493-16.792-4.466-22.909l18.642-2.038l1.985-15.876h-45.276
				C1812.789,140.181,1801.519,139.044,1787.722,139.044z M1817.773,278.243c3.402,1.134,5.762,2.693,7.088,4.678
				c1.32,1.985,1.985,5.054,1.985,9.213c0,5.103-1.09,9.023-3.261,11.766c-2.175,2.737-6.002,4.629-11.481,5.669
				c-5.485,1.037-13.232,1.559-23.247,1.559c-9.83,0-17.484-0.523-22.964-1.559c-5.485-1.041-9.312-2.976-11.483-5.812
				c-2.175-2.835-3.259-6.902-3.259-12.191c0-3.968,0.611-7.229,1.842-9.78c1.227-2.552,3.212-5.103,5.954-7.655
				c1.232-1.148,2.652-2.373,4.211-3.655l40.441,4.931C1809.645,276.165,1814.372,277.109,1817.773,278.243z M1811.962,199.855
				c-4.443,3.309-12.616,4.961-24.523,4.961c-11.906,0-20.128-1.652-24.664-4.961c-4.537-3.304-6.805-8.833-6.805-16.586
				c0-8.123,2.268-13.794,6.805-17.01c4.536-3.212,12.757-4.819,24.664-4.819c11.906,0,20.08,1.607,24.523,4.819
				c4.438,3.216,6.662,8.887,6.662,17.01C1818.624,191.022,1816.4,196.551,1811.962,199.855z"/>
			
				<linearGradient id="SVGID_00000139981512997661233590000008082520348839065750_" gradientUnits="userSpaceOnUse" x1="1953.6848" y1="502.2022" x2="1951.6682" y2="80.755">
				<stop  offset="0" style="stop-color:#1700E9"/>
				<stop  offset="1" style="stop-color:#992AFF"/>
			</linearGradient>
			<path style="fill:url(#SVGID_00000139981512997661233590000008082520348839065750_);" d="M1992.837,146.132
				c-10.112-4.721-23.672-7.088-40.682-7.088c-16.634,0-30.006,2.366-40.114,7.088c-10.113,4.727-17.437,12.474-21.972,23.247
				s-6.803,25.045-6.803,42.809c0,17.767,2.268,31.991,6.803,42.666c4.536,10.68,11.859,18.428,21.972,23.247
				c10.108,4.82,23.48,7.23,40.114,7.23c17.01,0,30.57-2.41,40.682-7.23c10.109-4.819,17.387-12.567,21.83-23.247
				c4.438-10.675,6.662-24.899,6.662-42.666c0-17.763-2.224-32.036-6.662-42.809
				C2010.224,158.606,2002.946,150.859,1992.837,146.132z M1982.632,240.82c-1.985,6.805-5.436,11.53-10.349,14.176
				c-4.916,2.648-11.623,3.968-20.128,3.968c-8.319,0-14.883-1.32-19.703-3.968c-4.82-2.645-8.27-7.371-10.347-14.176
				c-2.082-6.803-3.119-16.345-3.119-28.633c0-12.284,1.037-21.83,3.119-28.633c2.078-6.805,5.527-11.575,10.347-14.317
				c4.82-2.738,11.384-4.112,19.703-4.112c8.505,0,15.212,1.373,20.128,4.112c4.913,2.741,8.364,7.512,10.349,14.317
				c1.985,6.803,2.976,16.349,2.976,28.633C1985.608,224.475,1984.616,234.017,1982.632,240.82z"/>
			
				<linearGradient id="SVGID_00000019668410854988684750000006735822162091794868_" gradientUnits="userSpaceOnUse" x1="2116.2886" y1="501.4242" x2="2114.272" y2="79.9769">
				<stop  offset="0" style="stop-color:#1700E9"/>
				<stop  offset="1" style="stop-color:#992AFF"/>
			</linearGradient>
			<path style="fill:url(#SVGID_00000019668410854988684750000006735822162091794868_);" d="M2146.914,123.168
				c0,5.861,0.093,11.58,0.283,17.152c0.128,3.84,0.403,7.656,0.803,11.45c-5.998-3.95-12.498-6.925-19.513-8.899
				c-9.073-2.551-18.335-3.827-27.784-3.827c-11.72,0-21.501,2.224-29.342,6.662c-7.845,4.443-13.705,11.908-17.577,22.396
				c-3.876,10.489-5.812,24.905-5.812,43.234c0,24.005,3.778,42.29,11.34,54.857c7.557,12.571,20.221,18.852,37.989,18.852
				c12.284,0,23.104-2.6,32.46-7.796c8.307-4.614,15.451-10.09,21.449-16.418l3.074,20.813h26.933V83.195h-34.304V123.168z
				 M2123.95,254.57c-3.969,1.231-8.505,1.842-13.608,1.842c-6.427,0-11.624-1.276-15.593-3.827
				c-3.968-2.552-6.9-7.088-8.788-13.608c-1.892-6.52-2.835-15.828-2.835-27.925c0-12.66,0.993-22.299,2.978-28.918
				c1.985-6.613,5.005-11.101,9.071-13.466c4.062-2.361,9.498-3.544,16.301-3.544c7.181,0,13.701,0.758,19.562,2.268
				c4.776,1.236,10.089,2.669,15.876,4.278v70.076c-3.981,2.8-7.577,5.191-10.773,7.152
				C2131.982,251.452,2127.919,253.344,2123.95,254.57z"/>
			
				<linearGradient id="SVGID_00000133515559036068256030000000384638492497538463_" gradientUnits="userSpaceOnUse" x1="2281.1758" y1="500.6353" x2="2279.1592" y2="79.188">
				<stop  offset="0" style="stop-color:#1700E9"/>
				<stop  offset="1" style="stop-color:#992AFF"/>
			</linearGradient>
			<path style="fill:url(#SVGID_00000133515559036068256030000000384638492497538463_);" d="M2312.334,256.413
				c-9.17,0.568-17.249,0.851-24.24,0.851c-9.453,0-17.01-1.276-22.68-3.827c-5.669-2.552-9.736-7.323-12.19-14.317
				c-1.416-4.026-2.409-9.056-3.009-15.026h56.023c14.176,0,24.333-3.259,30.477-9.781c6.14-6.52,9.116-16.11,8.93-28.774
				c-0.19-15.31-5.2-26.884-15.025-34.729c-9.83-7.84-25.989-11.766-48.479-11.766c-16.066,0-29.156,2.269-39.263,6.805
				c-10.113,4.536-17.484,12.146-22.113,22.821c-4.634,10.68-6.947,25.188-6.947,43.517c0,17.01,2.313,30.901,6.947,41.675
				c4.628,10.773,12.092,18.666,22.396,23.672c10.299,5.005,23.955,7.512,40.965,7.512c6.237,0,12.899-0.332,19.987-0.992
				c7.088-0.665,13.935-1.656,20.553-2.978c6.613-1.32,12.474-3.02,17.577-5.102l-3.403-21.83
				C2330.335,255.093,2321.498,255.845,2312.334,256.413z M2262.863,168.245c4.913-2.454,11.809-3.685,20.696-3.685
				c10.205,0,17.435,1.514,21.687,4.536c4.252,3.026,6.471,8.412,6.663,16.159c0,4.917-0.9,9.072-2.693,12.474
				c-1.799,3.402-5.91,5.103-12.333,5.103h-47.226c0.304-8.939,1.25-16.05,2.859-21.262
				C2254.5,175.146,2257.946,170.704,2262.863,168.245z"/>
		</g>
		
			<linearGradient id="SVGID_00000090980329371785161780000016037864279474450609_" gradientUnits="userSpaceOnUse" x1="1835.4993" y1="98.6185" x2="1835.4993" y2="-489.8532">
			<stop  offset="0" style="stop-color:#1700E9"/>
			<stop  offset="1" style="stop-color:#992AFF"/>
		</linearGradient>
		<path style="fill:url(#SVGID_00000090980329371785161780000016037864279474450609_);" d="M1835.499-432
			c-121.943,0-220.796,98.854-220.796,220.796c0,121.942,98.854,220.796,220.796,220.796s220.796-98.854,220.796-220.796
			C2056.295-333.146,1957.442-432,1835.499-432z M1711.359-114.975c9.365-32.987,38.231-131.726,38.231-131.726
			c4.374-10.159,12.662-16.631,23.982-18.721c11.861-2.191,25.017,0.666,37.053,7.879l-89.761,196.054
			C1706.589-77.287,1704.797-91.862,1711.359-114.975z M1922.591-171.59c-19.859,10.991-37.633,20.882-50.605,28.101l-2.264,1.259
			c-7.291,4.057-13.167,7.326-15.319,8.506c-9.269,3.762-18.805,2.715-27.613-3.035c-9.16-5.981-16.291-16.059-20.2-28.298
			l119.491-53.957c6.487,4.832,10.453,12.117,11.063,20.57C1937.947-187.293,1932.371-177.003,1922.591-171.59z M1764.474-294.211
			c3.723-13.529,11.265-24.681,21.356-31.288c9.63-6.306,20.094-7.349,30.273-3.022l125.369,61.83l0.711,0.33
			c19.113,8.341,29.477,23.962,30.063,45.247L1764.474-294.211z"/>
	</g>
	<g>
		<path d="M-815.472-326.186c0,4.617,0.073,9.122,0.223,13.511c0.101,3.025,0.317,6.031,0.632,9.02
			c-4.725-3.111-9.845-5.455-15.371-7.01c-7.147-2.009-14.443-3.015-21.886-3.015c-9.233,0-16.937,1.752-23.113,5.248
			c-6.18,3.5-10.796,9.38-13.846,17.642c-3.053,8.263-4.578,19.618-4.578,34.057c0,18.909,2.976,33.313,8.933,43.213
			c5.953,9.903,15.929,14.85,29.925,14.85c9.676,0,18.2-2.048,25.57-6.141c6.543-3.634,12.171-7.948,16.896-12.933l2.422,16.395
			h21.216v-156.324h-27.022V-326.186z M-833.561-222.677c-3.127,0.97-6.699,1.451-10.719,1.451c-5.063,0-9.156-1.005-12.283-3.015
			c-3.126-2.011-5.436-5.583-6.922-10.719c-1.49-5.136-2.234-12.468-2.234-21.997c0-9.973,0.782-17.565,2.346-22.779
			c1.563-5.209,3.942-8.744,7.146-10.607c3.2-1.86,7.482-2.792,12.841-2.792c5.656,0,10.793,0.597,15.409,1.786
			c3.763,0.974,7.947,2.102,12.506,3.37v55.201c-3.136,2.206-5.969,4.089-8.486,5.634
			C-827.234-225.133-830.434-223.643-833.561-222.677z"/>
		<path d="M-737.536-358.567h-12.06c-5.359,0-8.039,2.68-8.039,8.04v12.506c0,5.359,2.68,8.04,8.039,8.04h12.06
			c5.359,0,8.04-2.681,8.04-8.04v-12.506C-729.496-355.887-732.177-358.567-737.536-358.567z"/>
		<rect x="-756.965" y="-310.999" width="26.799" height="109.649"/>
		<path d="M-607.007-254.389c4.837-5.136,7.181-12.69,7.035-22.666c-0.15-12.06-4.096-21.177-11.836-27.357
			c-7.744-6.176-20.472-9.268-38.189-9.268c-12.656,0-22.967,1.787-30.929,5.36c-7.967,3.573-13.773,9.568-17.419,17.977
			c-3.65,8.413-5.472,19.841-5.472,34.28c0,13.399,1.822,24.341,5.472,32.828c3.646,8.486,9.526,14.704,17.642,18.647
			c8.113,3.942,18.87,5.917,32.269,5.917c4.913,0,10.161-0.262,15.745-0.781c5.583-0.524,10.977-1.305,16.191-2.346
			c5.209-1.04,9.826-2.379,13.846-4.019l-2.681-17.196c-6.699,0.747-13.661,1.339-20.88,1.786c-7.223,0.447-13.588,0.67-19.094,0.67
			c-7.446,0-13.399-1.005-17.866-3.015c-4.466-2.011-7.669-5.769-9.602-11.277c-1.115-3.171-1.898-7.134-2.371-11.837h44.131
			C-619.848-246.684-611.847-249.252-607.007-254.389z M-675.586-263.433c0.24-7.042,0.985-12.643,2.253-16.749
			c1.563-5.06,4.277-8.559,8.151-10.496c3.87-1.933,9.302-2.903,16.303-2.903c8.039,0,13.734,1.193,17.084,3.573
			c3.35,2.383,5.097,6.626,5.248,12.729c0,3.873-0.709,7.147-2.121,9.826c-1.417,2.68-4.656,4.02-9.715,4.02H-675.586z"/>
		
			<linearGradient id="SVGID_00000108999578362120254560000013711451914068980398_" gradientUnits="userSpaceOnUse" x1="-524.3181" y1="-27.0087" x2="-525.9065" y2="-358.9936">
			<stop  offset="0" style="stop-color:#1700E9"/>
			<stop  offset="1" style="stop-color:#992AFF"/>
		</linearGradient>
		<path style="fill:url(#SVGID_00000108999578362120254560000013711451914068980398_);" d="M-529.184-313.68
			c-12.359,0-22.184,1.155-29.477,3.462c-7.296,2.31-12.545,6.029-15.745,11.167c-3.203,5.136-4.801,11.873-4.801,20.209
			c0,8.19,1.598,14.816,4.801,19.875c2.424,3.835,6.005,6.898,10.736,9.194c-2.224,1.313-4.09,3.087-5.599,5.323
			c-2.01,2.98-3.276,6.218-3.797,9.714c-0.524,3.5-0.189,7,1.005,10.496c1.148,3.378,3.174,6.265,6.059,8.671
			c-3.072,1.435-5.693,2.937-7.846,4.505c-3.573,2.606-6.14,5.548-7.704,8.821s-2.346,7.293-2.346,12.059
			c0,6.104,0.893,11.201,2.681,15.297c1.786,4.093,4.801,7.443,9.044,10.05c4.243,2.603,9.938,4.466,17.084,5.582
			c7.147,1.117,16.153,1.675,27.022,1.675c13.695,0,24.6-1.005,32.716-3.015c8.113-2.011,13.957-5.549,17.53-10.608
			c3.574-5.063,5.36-12.135,5.36-21.215c0-9.676-2.234-17.084-6.699-22.221c-4.467-5.136-12.21-8.374-23.225-9.714l-40.644-5.359
			c-4.321-0.594-7.111-2.121-8.375-4.578c-1.266-2.457-1.49-5.06-0.67-7.817c0.397-1.337,0.964-2.558,1.696-3.667
			c5.893,1.024,12.868,1.545,20.971,1.545c12.356,0,22.182-1.189,29.479-3.573c7.292-2.38,12.506-6.141,15.632-11.277
			c3.126-5.136,4.689-11.725,4.689-19.764c0-7.215-1.176-13.228-3.518-18.046l14.685-1.606l1.563-12.506h-35.665
			C-509.438-312.784-518.316-313.68-529.184-313.68z M-505.512-204.03c2.68,0.893,4.539,2.121,5.583,3.685
			c1.04,1.563,1.563,3.981,1.563,7.258c0,4.02-0.859,7.108-2.569,9.268c-1.713,2.156-4.728,3.646-9.044,4.466
			c-4.321,0.817-10.423,1.228-18.312,1.228c-7.744,0-13.773-0.412-18.089-1.228c-4.321-0.82-7.335-2.344-9.045-4.578
			c-1.713-2.234-2.568-5.437-2.568-9.603c0-3.126,0.482-5.694,1.451-7.704c0.966-2.011,2.53-4.02,4.69-6.03
			c0.97-0.905,2.089-1.869,3.317-2.879l31.856,3.885C-511.915-205.666-508.192-204.923-505.512-204.03z M-510.09-265.777
			c-3.5,2.606-9.938,3.908-19.317,3.908c-9.379,0-15.855-1.301-19.428-3.908c-3.574-2.603-5.36-6.958-5.36-13.065
			c0-6.399,1.786-10.866,5.36-13.399c3.573-2.53,10.049-3.796,19.428-3.796c9.379,0,15.818,1.266,19.317,3.796
			c3.496,2.533,5.248,7,5.248,13.399C-504.842-272.735-506.594-268.38-510.09-265.777z"/>
		
			<linearGradient id="SVGID_00000128483672282788273070000001122323225543883441_" gradientUnits="userSpaceOnUse" x1="-398.4512" y1="-27.6109" x2="-400.0396" y2="-359.5958">
			<stop  offset="0" style="stop-color:#1700E9"/>
			<stop  offset="1" style="stop-color:#992AFF"/>
		</linearGradient>
		<path style="fill:url(#SVGID_00000128483672282788273070000001122323225543883441_);" d="M-367.61-308.097
			c-7.965-3.719-18.647-5.583-32.046-5.583c-13.103,0-23.637,1.864-31.599,5.583c-7.967,3.724-13.735,9.826-17.308,18.312
			c-3.573,8.486-5.359,19.729-5.359,33.722c0,13.996,1.786,25.2,5.359,33.609c3.573,8.413,9.341,14.516,17.308,18.312
			c7.962,3.797,18.496,5.695,31.599,5.695c13.399,0,24.081-1.898,32.046-5.695c7.963-3.796,13.696-9.899,17.196-18.312
			c3.496-8.409,5.248-19.614,5.248-33.609c0-13.993-1.752-25.236-5.248-33.722C-353.914-298.271-359.647-304.373-367.61-308.097z
			 M-375.649-233.508c-1.563,5.36-4.282,9.083-8.152,11.167c-3.872,2.086-9.156,3.126-15.855,3.126
			c-6.553,0-11.724-1.04-15.52-3.126c-3.797-2.084-6.514-5.806-8.151-11.167c-1.64-5.359-2.457-12.875-2.457-22.555
			c0-9.676,0.817-17.196,2.457-22.555c1.637-5.36,4.354-9.118,8.151-11.277c3.797-2.157,8.967-3.239,15.52-3.239
			c6.699,0,11.983,1.082,15.855,3.239c3.87,2.159,6.589,5.917,8.152,11.277c1.563,5.359,2.344,12.879,2.344,22.555
			C-373.304-246.384-374.086-238.867-375.649-233.508z"/>
		
			<linearGradient id="SVGID_00000054944028694126134620000006438311934434537860_" gradientUnits="userSpaceOnUse" x1="-270.364" y1="-28.2238" x2="-271.9525" y2="-360.2087">
			<stop  offset="0" style="stop-color:#1700E9"/>
			<stop  offset="1" style="stop-color:#992AFF"/>
		</linearGradient>
		<path style="fill:url(#SVGID_00000054944028694126134620000006438311934434537860_);" d="M-246.24-326.186
			c0,4.617,0.073,9.122,0.223,13.511c0.101,3.025,0.317,6.031,0.632,9.02c-4.724-3.111-9.845-5.455-15.371-7.01
			c-7.147-2.009-14.443-3.015-21.886-3.015c-9.233,0-16.937,1.752-23.113,5.248c-6.18,3.5-10.796,9.38-13.846,17.642
			c-3.053,8.263-4.578,19.618-4.578,34.057c0,18.909,2.976,33.313,8.933,43.213c5.953,9.903,15.929,14.85,29.925,14.85
			c9.676,0,18.2-2.048,25.57-6.141c6.544-3.634,12.171-7.948,16.896-12.933l2.422,16.395h21.216v-156.324h-27.022V-326.186z
			 M-264.329-222.677c-3.127,0.97-6.699,1.451-10.719,1.451c-5.063,0-9.156-1.005-12.283-3.015
			c-3.126-2.011-5.436-5.583-6.922-10.719c-1.49-5.136-2.234-12.468-2.234-21.997c0-9.973,0.782-17.565,2.346-22.779
			c1.563-5.209,3.942-8.744,7.146-10.607c3.2-1.86,7.482-2.792,12.841-2.792c5.656,0,10.793,0.597,15.409,1.786
			c3.762,0.974,7.947,2.102,12.506,3.37v55.201c-3.136,2.206-5.969,4.089-8.486,5.634
			C-258.002-225.133-261.202-223.643-264.329-222.677z"/>
		
			<linearGradient id="SVGID_00000106137082276483642720000011328064092179388292_" gradientUnits="userSpaceOnUse" x1="-140.4781" y1="-28.8452" x2="-142.0665" y2="-360.8301">
			<stop  offset="0" style="stop-color:#1700E9"/>
			<stop  offset="1" style="stop-color:#992AFF"/>
		</linearGradient>
		<path style="fill:url(#SVGID_00000106137082276483642720000011328064092179388292_);" d="M-115.934-221.226
			c-7.223,0.447-13.588,0.67-19.094,0.67c-7.446,0-13.399-1.005-17.866-3.015c-4.466-2.011-7.669-5.769-9.602-11.277
			c-1.115-3.171-1.898-7.134-2.371-11.837h44.131c11.167,0,19.168-2.568,24.007-7.705c4.837-5.136,7.181-12.69,7.035-22.666
			c-0.15-12.06-4.096-21.177-11.836-27.357c-7.744-6.176-20.472-9.268-38.189-9.268c-12.656,0-22.967,1.787-30.929,5.36
			c-7.967,3.573-13.773,9.568-17.419,17.977c-3.65,8.413-5.472,19.841-5.472,34.28c0,13.399,1.822,24.341,5.472,32.828
			c3.646,8.486,9.525,14.704,17.642,18.647c8.113,3.942,18.87,5.917,32.269,5.917c4.913,0,10.161-0.262,15.745-0.781
			c5.583-0.524,10.977-1.305,16.191-2.346c5.209-1.04,9.826-2.379,13.846-4.019l-2.681-17.196
			C-101.754-222.265-108.715-221.673-115.934-221.226z M-154.904-290.678c3.87-1.933,9.302-2.903,16.303-2.903
			c8.039,0,13.734,1.193,17.084,3.573c3.35,2.383,5.097,6.626,5.248,12.729c0,3.873-0.709,7.147-2.121,9.826
			c-1.417,2.68-4.656,4.02-9.715,4.02h-37.201c0.24-7.042,0.985-12.643,2.252-16.749
			C-161.491-285.241-158.777-288.741-154.904-290.678z"/>
		
			<linearGradient id="SVGID_00000010274988206941801470000017634017780756800164_" gradientUnits="userSpaceOnUse" x1="-1136.3151" y1="-14.018" x2="-1136.3151" y2="-477.5724">
			<stop  offset="0" style="stop-color:#1700E9"/>
			<stop  offset="1" style="stop-color:#992AFF"/>
		</linearGradient>
		<path style="fill:url(#SVGID_00000010274988206941801470000017634017780756800164_);" d="M-1136.315-432
			c-96.057,0-173.927,77.87-173.927,173.927c0,96.057,77.869,173.927,173.927,173.927s173.927-77.869,173.927-173.927
			C-962.388-354.13-1040.258-432-1136.315-432z M-1234.104-182.271c7.377-25.984,30.115-103.764,30.115-103.764
			c3.446-8.003,9.974-13.101,18.891-14.747c9.343-1.726,19.707,0.525,29.188,6.207l-70.707,154.437
			C-1237.861-152.584-1239.273-164.065-1234.104-182.271z M-1067.711-226.868c-15.643,8.658-29.645,16.449-39.863,22.136
			l-1.784,0.992c-5.744,3.195-10.372,5.77-12.067,6.701c-7.301,2.963-14.813,2.139-21.751-2.391
			c-7.215-4.712-12.833-12.65-15.912-22.291l94.126-42.504c5.11,3.806,8.235,9.545,8.715,16.204
			C-1055.614-239.238-1060.007-231.132-1067.711-226.868z M-1192.263-323.46c2.932-10.657,8.874-19.442,16.823-24.646
			c7.586-4.967,15.828-5.789,23.847-2.381l98.756,48.705l0.56,0.26c15.056,6.571,23.22,18.875,23.682,35.642L-1192.263-323.46z"/>
	</g>
</g>
</svg>
